<svg width="20" height="20" viewBox="0 0 20 20" fill="none" xmlns="http://www.w3.org/2000/svg">
<path d="M9.5896 20H10.4224C14.9432 20 17.204 20 18.608 18.596C20.012 17.192 20 14.932 20 10.4224V9.5776C20 5.0688 20 2.808 18.608 1.404C17.216 3.97364e-06 14.9432 0 10.4224 0H9.5896C5.068 0 2.808 3.97364e-06 1.404 1.404C-7.94729e-07 2.808 0 5.0672 0 9.5776V10.4224C0 14.932 -7.94729e-07 17.192 1.404 18.596C2.808 20 5.068 20 9.5896 20Z" fill="#0077FF"/>
<path d="M10.7322 14.4198C6.2226 14.4198 3.48579 11.291 3.37939 6.0918H5.66339C5.73459 9.911 7.47219 11.5318 8.80419 11.8622V6.0918H10.9938V9.387C12.2786 9.2446 13.6226 7.7454 14.0754 6.0918H16.2282C15.8834 8.1262 14.4202 9.6254 13.385 10.2438C14.4202 10.7438 16.0858 12.0526 16.7282 14.4198H14.361C13.861 12.8374 12.6354 11.6118 10.9938 11.4454V14.4198H10.7322Z" fill="white"/>
</svg>
