<svg width="329" height="329" viewBox="0 0 329 329" fill="none" xmlns="http://www.w3.org/2000/svg">
<g opacity="0.1">
<path d="M161.129 318.372L159.149 290.904L163.28 290.607L165.005 314.535L177.934 313.606L176.21 289.678L180.341 289.382L182.32 316.849L161.129 318.372Z" fill="url(#paint0_radial_161_3247)"/>
<path d="M141.145 287.715C143.048 288.072 144.627 288.82 145.881 289.959C147.135 291.098 148.006 292.525 148.495 294.24C148.984 295.955 149.03 297.861 148.635 299.958C148.239 302.063 147.5 303.831 146.419 305.261C145.337 306.69 144.005 307.708 142.422 308.314C140.84 308.919 139.097 309.043 137.194 308.686C135.291 308.328 133.712 307.58 132.458 306.442C131.204 305.303 130.333 303.872 129.846 302.148C129.359 300.423 129.314 298.509 129.711 296.403C130.106 294.306 130.843 292.548 131.923 291.127C133.002 289.706 134.333 288.693 135.916 288.087C137.499 287.481 139.242 287.357 141.145 287.715ZM140.507 291.029C139.273 290.797 138.19 290.931 137.256 291.431C136.323 291.931 135.56 292.686 134.969 293.697C134.368 294.706 133.945 295.862 133.699 297.166C133.455 298.461 133.429 299.687 133.622 300.846C133.804 302.011 134.237 303 134.924 303.813C135.61 304.626 136.569 305.148 137.803 305.38C139.045 305.613 140.138 305.476 141.082 304.97C142.017 304.461 142.786 303.698 143.388 302.68C143.98 301.669 144.398 300.517 144.642 299.222C144.887 297.918 144.919 296.688 144.735 295.531C144.543 294.373 144.103 293.392 143.415 292.588C142.718 291.782 141.749 291.262 140.507 291.029Z" fill="url(#paint1_radial_161_3247)"/>
<path d="M121.559 283.384L120.131 286.56L119.457 286.255C118.935 286.019 118.448 285.931 117.997 285.992C117.533 286.058 117.065 286.309 116.592 286.744C116.119 287.179 115.606 287.842 115.053 288.734C114.497 289.633 113.862 290.792 113.149 292.211L109.037 300.387L95.9053 294.44L104.447 275.635L108.036 277.26L100.929 292.907L107.078 295.691L110.275 289.434C111.053 287.916 111.827 286.633 112.599 285.585C113.362 284.533 114.148 283.723 114.958 283.155C115.764 282.595 116.613 282.286 117.506 282.227C118.395 282.177 119.354 282.385 120.383 282.851L121.559 283.384Z" fill="url(#paint2_radial_161_3247)"/>
<path d="M95.7984 261.158C96.2733 261.526 96.6755 261.9 97.0048 262.28C97.3397 262.652 97.5698 262.955 97.6952 263.188L94.909 265.197C94.4487 264.592 93.9835 264.124 93.5134 263.794C93.0433 263.464 92.5108 263.324 91.916 263.373C91.3142 263.418 90.5982 263.696 89.768 264.21L88.5333 264.989L81.6752 286.141L78.2728 283.506L83.9682 267.644L83.798 267.513L69.8307 276.97L66.4177 274.327L87.5074 261.048C88.4791 260.44 89.4341 260.029 90.3725 259.814C91.3164 259.593 92.2369 259.591 93.1342 259.81C94.0314 260.028 94.9195 260.478 95.7984 261.158Z" fill="url(#paint3_radial_161_3247)"/>
<path d="M44.6247 250.296L60.6503 237.265L63.1318 240.308L47.1062 253.338L44.6247 250.296ZM53.1429 245.571L55.8347 243.382C56.4204 243.703 57.0079 244.069 57.5972 244.479C58.1795 244.895 58.7532 245.365 59.3182 245.887C59.8833 246.41 60.4264 246.991 60.9476 247.63C62.5624 249.61 63.3622 251.577 63.3472 253.53C63.3253 255.489 62.3127 257.283 60.3095 258.911L55.072 263.17L52.5989 260.137L57.8364 255.879C58.5946 255.262 59.0969 254.623 59.3432 253.961C59.5896 253.298 59.6144 252.619 59.4177 251.924C59.221 251.229 58.8337 250.527 58.2558 249.819C57.491 248.881 56.6987 248.087 55.8789 247.436C55.0465 246.784 54.1345 246.162 53.1429 245.571Z" fill="url(#paint4_radial_161_3247)"/>
<path d="M47.1751 225.883L29.6825 224.206L27.7985 220.308L46.4056 211.342L48.12 214.89L34.5765 221.415L52.0636 223.05L53.9652 226.985L35.3581 235.95L33.6437 232.403L47.1751 225.883Z" fill="url(#paint5_radial_161_3247)"/>
<path d="M38.1195 172.503C38.2633 174.497 37.9355 176.246 37.1362 177.751C36.3274 179.247 35.1504 180.437 33.6053 181.321C32.0602 182.205 30.255 182.722 28.1895 182.87C26.0972 183.021 24.2224 182.76 22.5652 182.088C20.899 181.417 19.5627 180.399 18.5565 179.033C17.5502 177.667 16.9772 176.014 16.8373 174.074C16.7244 172.509 16.9144 171.094 17.4073 169.827C17.8912 168.561 18.6247 167.515 19.6078 166.689C20.5902 165.855 21.7692 165.316 23.1448 165.073L23.4262 168.976C22.476 169.26 21.6799 169.812 21.0379 170.631C20.3953 171.441 20.1201 172.485 20.2123 173.764C20.2929 174.882 20.6586 175.84 21.3093 176.638C21.9504 177.427 22.8287 178.016 23.9442 178.403C25.0507 178.791 26.3371 178.932 27.8035 178.826C29.3057 178.718 30.5858 178.397 31.6437 177.863C32.7017 177.328 33.5003 176.624 34.0394 175.749C34.5779 174.865 34.8062 173.856 34.7243 172.72C34.6695 171.96 34.4812 171.282 34.1596 170.685C33.8283 170.079 33.3837 169.586 32.8259 169.203C32.2674 168.812 31.611 168.558 30.8566 168.442L30.5751 164.539C31.9177 164.586 33.1382 164.934 34.2366 165.583C35.335 166.232 36.2275 167.143 36.9143 168.316C37.6004 169.48 38.0021 170.876 38.1195 172.503Z" fill="url(#paint6_radial_161_3247)"/>
<path d="M39.4051 143.914C39.0925 145.825 38.3818 147.421 37.2729 148.702C36.164 149.984 34.7577 150.89 33.0541 151.42C31.3504 151.951 29.4457 152.044 27.34 151.701C25.2254 151.356 23.4407 150.66 21.9857 149.615C20.5308 148.569 19.4819 147.262 18.839 145.695C18.196 144.128 18.0308 142.389 18.3434 140.478C18.656 138.567 19.3667 136.971 20.4756 135.689C21.5845 134.408 22.9952 133.502 24.7077 132.973C26.4202 132.444 28.3338 132.352 30.4483 132.697C32.5541 133.041 34.33 133.735 35.776 134.779C37.2221 135.823 38.2666 137.129 38.9096 138.696C39.5525 140.264 39.7177 142.003 39.4051 143.914ZM36.0761 143.357C36.2787 142.118 36.1192 141.039 35.5976 140.118C35.0761 139.197 34.303 138.454 33.2784 137.887C32.2553 137.311 31.089 136.916 29.7795 136.703C28.4789 136.491 27.252 136.495 26.0986 136.715C24.9378 136.926 23.9591 137.384 23.1624 138.089C22.3657 138.795 21.866 139.767 21.6634 141.006C21.4594 142.253 21.6219 143.342 22.1509 144.273C22.6813 145.196 23.4625 145.945 24.4945 146.522C25.5191 147.089 26.6817 147.479 27.9823 147.691C29.2917 147.904 30.5224 147.905 31.6743 147.694C32.8277 147.473 33.7983 147.009 34.5861 146.302C35.3754 145.586 35.8721 144.604 36.0761 143.357Z" fill="url(#paint7_radial_161_3247)"/>
<path d="M43.9842 122.763L24.922 114.811L28.2281 106.909C29.1278 104.759 30.2998 103.247 31.7441 102.373C33.1801 101.496 34.68 101.383 36.2437 102.036C37.3606 102.502 38.0971 103.227 38.4531 104.21C38.8092 105.194 38.8532 106.32 38.5852 107.587C39.0409 106.777 39.6244 106.103 40.3356 105.564C41.0386 105.022 41.8234 104.679 42.6901 104.535C43.5602 104.384 44.4709 104.506 45.4224 104.903C46.4318 105.324 47.2163 105.957 47.776 106.803C48.3275 107.645 48.6148 108.653 48.6381 109.829C48.6566 110.992 48.3752 112.269 47.7939 113.658L43.9842 122.763ZM42.3401 117.983L44.6913 112.364C45.0754 111.446 45.1571 110.635 44.9366 109.931C44.7161 109.227 44.2294 108.718 43.4765 108.404C42.5913 108.035 41.7873 108.005 41.0646 108.316C40.3337 108.623 39.7761 109.235 39.3921 110.153L37.0409 115.773L42.3401 117.983ZM34.323 114.639L36.1863 110.186C36.477 109.491 36.6268 108.854 36.6359 108.275C36.6484 107.688 36.528 107.186 36.2747 106.769C36.0165 106.341 35.6351 106.022 35.1304 105.811C34.3941 105.504 33.6928 105.566 33.0265 105.997C32.3602 106.428 31.8074 107.169 31.368 108.219L29.5202 112.635L34.323 114.639Z" fill="url(#paint8_radial_161_3247)"/>
<path d="M61.9045 89.8016C60.7052 91.4455 59.3207 92.6057 57.751 93.2819C56.1793 93.9456 54.5168 94.1331 52.7634 93.8444C51.008 93.5431 49.2639 92.7623 47.5312 91.5021C45.8203 90.2577 44.5448 88.8422 43.7048 87.2558C42.8701 85.6621 42.5066 84.0232 42.6144 82.3392C42.7275 80.6478 43.3494 79.0273 44.48 77.4774C45.1669 76.5359 45.9884 75.7368 46.9448 75.08C47.9011 74.4232 48.969 73.9861 50.1484 73.7687C51.3279 73.5513 52.5984 73.6274 53.96 73.997C55.3143 74.3613 56.7491 75.0944 58.2643 76.1965L59.417 77.0349L49.7405 90.2989L47.3046 88.5272L54.659 78.4461C53.8036 77.8239 52.9192 77.4467 52.0058 77.3145C51.0853 77.177 50.203 77.2835 49.3591 77.6341C48.5205 77.9775 47.7948 78.5692 47.1819 79.4093C46.5162 80.3218 46.1598 81.282 46.1127 82.2896C46.0635 83.2848 46.2631 84.2281 46.7114 85.1195C47.1577 85.9983 47.7977 86.7409 48.6314 87.3473L50.5345 88.7315C51.651 89.5435 52.7433 90.0387 53.8116 90.2171C54.8852 90.3883 55.8875 90.2693 56.8185 89.8601C57.7422 89.4457 58.5502 88.7641 59.2423 87.8153C59.6914 87.1998 60.0138 86.5752 60.2097 85.9417C60.3982 85.3029 60.4496 84.6697 60.3639 84.042C60.2781 83.4142 60.0455 82.8128 59.6662 82.2376L62.4636 79.5666C63.1902 80.472 63.6617 81.4912 63.8783 82.6241C64.0928 83.7446 64.0399 84.9199 63.7195 86.1501C63.3971 87.3677 62.7921 88.5849 61.9045 89.8016Z" fill="url(#paint9_radial_161_3247)"/>
<path d="M80.3687 79.0425L62.0258 57.3612L65.0272 54.8296L67.1897 57.3858L67.4467 57.1691C67.347 56.6903 67.2826 56.0937 67.2536 55.3793C67.2246 54.6649 67.3721 53.8955 67.6961 53.071C68.0143 52.2396 68.6634 51.4107 69.6433 50.5842C70.9179 49.5091 72.3275 48.8713 73.8722 48.6708C75.417 48.4702 76.9861 48.7358 78.5797 49.4674C80.1802 50.1933 81.7012 51.4082 83.143 53.1124C84.5847 54.8165 85.5365 56.5175 85.9984 58.2154C86.4545 59.9065 86.4636 61.4996 86.0259 62.9947C85.5823 64.483 84.7233 65.7646 83.4487 66.8397C82.4894 67.6489 81.5687 68.1498 80.6867 68.3426C79.8116 68.5295 79.0203 68.5519 78.3129 68.4098C77.6055 68.2676 77.0174 68.1069 76.5487 67.9276L76.3637 68.0836L83.442 76.4502L80.3687 79.0425ZM71.7076 62.7051C72.6456 63.8138 73.6288 64.6498 74.6573 65.2131C75.6857 65.7764 76.7046 66.0369 77.714 65.9947C78.7176 65.9457 79.6614 65.5484 80.5454 64.8028C81.4636 64.0283 82.0255 63.138 82.2311 62.1319C82.431 61.1189 82.3324 60.0586 81.9354 58.9509C81.5453 57.8375 80.9044 56.7538 80.0128 55.6998C79.1327 54.6596 78.1847 53.8583 77.1689 53.2961C76.1599 52.7281 75.141 52.4675 74.1122 52.5144C73.0901 52.5556 72.1166 52.9663 71.1915 53.7465C70.3007 54.4979 69.7409 55.363 69.5121 56.3417C69.2902 57.3147 69.369 58.3447 69.7486 59.4318C70.1282 60.519 70.7812 61.6101 71.7076 62.7051Z" fill="url(#paint10_radial_161_3247)"/>
<path d="M90.5527 35.715L94.1321 34.0687L101.325 49.6611L107.812 46.6775L100.619 31.0851L104.199 29.4388L111.392 45.0312L117.879 42.0476L110.686 26.4552L114.265 24.8089L122.917 43.5637L99.2047 54.4699L90.5527 35.715Z" fill="url(#paint11_radial_161_3247)"/>
<path d="M143.487 39.5217C141.478 39.8491 139.678 39.7021 138.087 39.0805C136.503 38.4487 135.189 37.414 134.146 35.9765C133.11 34.5286 132.419 32.7475 132.073 30.6331C131.731 28.5452 131.82 26.6415 132.338 24.9221C132.865 23.2013 133.759 21.7794 135.019 20.6564C136.289 19.5321 137.87 18.8155 139.764 18.5068C140.914 18.3192 142.06 18.3277 143.201 18.5321C144.343 18.7365 145.409 19.1757 146.401 19.8497C147.392 20.5237 148.242 21.4706 148.95 22.6903C149.657 23.9012 150.161 25.4311 150.464 27.2801L150.694 28.6868L134.489 31.329L134.003 28.3564L146.319 26.3482C146.148 25.3043 145.785 24.4144 145.228 23.6786C144.671 22.9339 143.969 22.3899 143.122 22.0465C142.285 21.7017 141.353 21.6129 140.326 21.7803C139.211 21.962 138.283 22.395 137.541 23.0791C136.806 23.753 136.285 24.5646 135.977 25.514C135.677 26.4532 135.609 27.4314 135.776 28.4488L136.156 30.7712C136.379 32.1336 136.807 33.2536 137.441 34.1312C138.084 35.0073 138.88 35.6268 139.83 35.9897C140.778 36.3438 141.831 36.4263 142.99 36.2373C143.742 36.1147 144.411 35.8968 144.995 35.5834C145.579 35.2613 146.06 34.8467 146.441 34.3396C146.821 33.8325 147.078 33.241 147.213 32.5651L151.08 32.6294C150.96 33.7844 150.578 34.8411 149.936 35.7997C149.301 36.748 148.437 37.5474 147.344 38.1978C146.259 38.838 144.973 39.2793 143.487 39.5217Z" fill="url(#paint12_radial_161_3247)"/>
<path d="M179.699 26.1625L179.428 29.6347L168.274 28.7638L168.546 25.2916L179.699 26.1625ZM170.341 16.8131L168.732 37.4047L164.804 37.098L166.413 16.5064L170.341 16.8131ZM183.17 17.8149L181.562 38.4065L177.647 38.1008L179.256 17.5092L183.17 17.8149Z" fill="url(#paint13_radial_161_3247)"/>
<path d="M211.999 33.8072L210.909 37.1151L200.28 33.6245L201.37 30.3166L211.999 33.8072ZM205.131 22.5079L198.669 42.1254L194.926 40.8961L201.388 21.2786L205.131 22.5079ZM217.357 26.5229L210.895 46.1404L207.165 44.9153L213.627 25.2978L217.357 26.5229Z" fill="url(#paint14_radial_161_3247)"/>
<path d="M230.453 56.6796C228.809 55.6562 227.609 54.3867 226.854 52.8711C226.099 51.3555 225.806 49.7101 225.973 47.935C226.141 46.1598 226.79 44.3674 227.92 42.5577C229.055 40.7404 230.386 39.3621 231.914 38.4228C233.441 37.4834 235.052 37.0187 236.748 37.0288C238.443 37.0389 240.112 37.5556 241.756 38.5791C243.4 39.6025 244.599 40.872 245.355 42.3876C246.11 43.9032 246.401 45.5524 246.228 47.3351C246.056 49.1179 245.402 50.9179 244.267 52.7352C243.137 54.5448 241.811 55.9156 240.288 56.8473C238.766 57.7791 237.157 58.2399 235.461 58.2299C233.766 58.2198 232.096 57.703 230.453 56.6796ZM232.252 53.8239C233.317 54.4873 234.376 54.7556 235.427 54.6288C236.479 54.502 237.464 54.0753 238.383 53.3485C239.309 52.6264 240.124 51.7028 240.827 50.5774C241.525 49.4597 241.995 48.3266 242.236 47.1781C242.49 46.0268 242.445 44.948 242.101 43.9418C241.757 42.9356 241.052 42.1009 239.987 41.4376C238.914 40.7695 237.845 40.5003 236.782 40.6299C235.725 40.7643 234.732 41.1963 233.8 41.9259C232.881 42.6527 232.073 43.5749 231.375 44.6927C230.672 45.818 230.196 46.9526 229.947 48.0963C229.705 49.2448 229.759 50.3183 230.108 51.3169C230.464 52.3202 231.179 53.1559 232.252 53.8239Z" fill="url(#paint15_radial_161_3247)"/>
<path d="M279.029 86.2253L276.213 88.2739L269.619 79.2356L272.436 77.1871L279.029 86.2253ZM280.05 73.0455L263.347 85.1943L261.025 82.0114L277.728 69.8625L280.05 73.0455ZM287.635 83.4416L270.931 95.5905L268.617 92.4184L285.321 80.2695L287.635 83.4416Z" fill="url(#paint16_radial_161_3247)"/>
<path d="M280.645 115.55C279.908 113.76 279.676 112.028 279.948 110.357C280.22 108.685 280.942 107.178 282.115 105.835C283.288 104.491 284.861 103.415 286.835 102.605C288.817 101.792 290.703 101.45 292.491 101.579C294.279 101.708 295.858 102.271 297.228 103.269C298.598 104.267 299.652 105.662 300.389 107.453C301.125 109.243 301.358 110.974 301.086 112.646C300.813 114.318 300.087 115.827 298.906 117.173C297.725 118.52 296.143 119.6 294.161 120.413C292.187 121.223 290.31 121.561 288.53 121.429C286.75 121.297 285.175 120.731 283.805 119.733C282.435 118.735 281.381 117.341 280.645 115.55ZM283.772 114.282C284.25 115.443 284.952 116.278 285.88 116.789C286.807 117.3 287.856 117.529 289.026 117.476C290.2 117.43 291.401 117.156 292.628 116.652C293.847 116.152 294.89 115.507 295.757 114.715C296.636 113.928 297.229 113.026 297.537 112.008C297.845 110.991 297.761 109.901 297.283 108.741C296.803 107.572 296.092 106.729 295.153 106.213C294.217 105.706 293.159 105.476 291.977 105.525C290.806 105.579 289.612 105.856 288.392 106.356C287.165 106.859 286.116 107.502 285.246 108.286C284.379 109.077 283.796 109.98 283.496 110.994C283.199 112.017 283.291 113.113 283.772 114.282Z" fill="url(#paint17_radial_161_3247)"/>
<path d="M287.863 135.956L308.268 132.753L309.6 141.215C309.962 143.517 309.758 145.419 308.987 146.919C308.225 148.418 307.006 149.299 305.333 149.562C304.137 149.749 303.13 149.517 302.31 148.865C301.49 148.214 300.862 147.278 300.425 146.058C300.462 146.987 300.32 147.867 299.997 148.698C299.683 149.527 299.194 150.23 298.532 150.806C297.871 151.391 297.031 151.763 296.012 151.923C294.932 152.092 293.932 151.964 293.011 151.536C292.1 151.108 291.326 150.399 290.689 149.41C290.063 148.429 289.632 147.194 289.398 145.706L287.863 135.956ZM291.772 139.168L292.719 145.185C292.874 146.168 293.23 146.901 293.787 147.386C294.344 147.87 295.026 148.049 295.832 147.922C296.779 147.773 297.479 147.378 297.932 146.735C298.393 146.091 298.546 145.277 298.391 144.294L297.444 138.277L291.772 139.168ZM300.353 137.821L301.104 142.589C301.221 143.333 301.428 143.954 301.724 144.452C302.022 144.959 302.388 145.323 302.822 145.546C303.266 145.775 303.759 145.848 304.299 145.763C305.087 145.639 305.652 145.219 305.993 144.503C306.334 143.787 306.416 142.867 306.239 141.742L305.494 137.014L300.353 137.821Z" fill="url(#paint18_radial_161_3247)"/>
<path d="M304.463 168.865L303.853 174.831C303.595 177.346 302.773 179.217 301.385 180.445C299.998 181.673 298.319 182.187 296.348 181.986C295.064 181.855 293.94 181.434 292.976 180.722C292.013 180.011 291.292 179.041 290.814 177.812C290.345 176.584 290.197 175.131 290.368 173.455L291.287 164.479L311.835 166.576L311.433 170.495L294.337 168.75L293.82 173.807C293.702 174.957 293.904 175.933 294.425 176.734C294.956 177.536 295.69 177.985 296.626 178.081C297.616 178.182 298.461 177.894 299.161 177.218C299.87 176.542 300.283 175.629 300.401 174.479L301.012 168.513L304.463 168.865ZM289.267 184.21L309.815 186.307L309.405 190.307L288.858 188.209L289.267 184.21Z" fill="url(#paint19_radial_161_3247)"/>
<path d="M289.431 206.213L300.202 220.076L298.652 224.119L279.359 216.744L280.77 213.065L294.812 218.433L284.014 204.603L285.579 200.522L304.872 207.898L303.461 211.576L289.431 206.213ZM307.349 220.966L306.165 224.055C304.75 223.514 303.791 222.572 303.289 221.228C302.791 219.896 302.869 218.38 303.52 216.681C304.168 214.99 305.123 213.815 306.384 213.155C307.654 212.498 308.996 212.44 310.411 212.981L309.232 216.057C308.604 215.817 307.976 215.788 307.349 215.971C306.731 216.157 306.25 216.697 305.907 217.593C305.57 218.472 305.567 219.191 305.9 219.75C306.23 220.318 306.713 220.723 307.349 220.966Z" fill="url(#paint20_radial_161_3247)"/>
<path d="M272.236 238.556C273.556 237.139 275.033 236.205 276.667 235.753C278.301 235.301 279.975 235.326 281.688 235.829C283.401 236.331 285.039 237.308 286.602 238.76C288.172 240.219 289.273 241.786 289.904 243.462C290.536 245.137 290.685 246.805 290.351 248.465C290.018 250.125 289.191 251.664 287.871 253.08C286.551 254.497 285.074 255.431 283.44 255.883C281.805 256.335 280.129 256.307 278.409 255.798C276.69 255.29 275.045 254.307 273.475 252.848C271.912 251.396 270.818 249.835 270.193 248.166C269.568 246.496 269.422 244.831 269.755 243.171C270.089 241.511 270.916 239.973 272.236 238.556ZM274.7 240.863C273.844 241.781 273.378 242.768 273.302 243.823C273.226 244.878 273.457 245.925 273.996 246.964C274.529 248.009 275.281 248.983 276.253 249.886C277.219 250.783 278.243 251.46 279.326 251.915C280.409 252.383 281.478 252.544 282.533 252.398C283.588 252.252 284.543 251.72 285.399 250.802C286.26 249.877 286.729 248.881 286.805 247.814C286.875 246.753 286.64 245.696 286.1 244.645C285.561 243.606 284.809 242.638 283.844 241.741C282.872 240.838 281.847 240.155 280.77 239.693C279.688 239.238 278.622 239.086 277.574 239.238C276.519 239.397 275.561 239.938 274.7 240.863Z" fill="url(#paint21_radial_161_3247)"/>
<path d="M259.592 255.375L270.951 272.625L256.866 281.872L245.507 264.622L248.801 262.459L258.252 276.812L265.772 271.875L256.321 257.522L259.592 255.375Z" fill="url(#paint22_radial_161_3247)"/>
<path d="M240.607 286.37L235.263 289.092C233.01 290.239 230.991 290.563 229.206 290.064C227.421 289.565 226.078 288.433 225.177 286.669C224.589 285.519 224.333 284.347 224.407 283.152C224.481 281.957 224.905 280.826 225.678 279.758C226.455 278.698 227.595 277.786 229.096 277.021L237.136 272.926L246.533 291.319L243.022 293.107L235.204 277.804L230.675 280.111C229.644 280.635 228.934 281.334 228.544 282.207C228.159 283.087 228.18 283.947 228.608 284.785C229.061 285.671 229.762 286.225 230.71 286.446C231.663 286.675 232.654 286.527 233.685 286.002L239.029 283.28L240.607 286.37ZM219.463 281.928L228.86 300.321L225.277 302.146L215.88 283.753L219.463 281.928Z" fill="url(#paint23_radial_161_3247)"/>
<path d="M217.638 302.42L219.044 305.592L203.104 312.636L201.698 309.465L207.86 306.741L200.896 291.031L204.487 289.444L211.451 305.154L217.638 302.42Z" fill="url(#paint24_radial_161_3247)"/>
<path d="M13.8176 206.311L31.5697 197.95L33.2205 201.289L15.7783 210.276L13.8176 206.311ZM39.7253 195.999C40.0551 196.666 40.104 197.351 39.872 198.055C39.632 198.763 39.1764 199.278 38.505 199.598C37.8496 199.932 37.1716 199.976 36.4708 199.732C35.762 199.491 35.2427 199.038 34.9129 198.371C34.5911 197.72 34.5502 197.04 34.7901 196.332C35.0221 195.628 35.4657 195.11 36.1211 194.777C36.5673 194.567 37.031 194.483 37.5121 194.526C37.9812 194.565 38.4137 194.711 38.8096 194.966C39.2055 195.22 39.5107 195.565 39.7253 195.999Z" fill="url(#paint25_radial_161_3247)"/>
<path d="M102.638 106.931C101.759 106.956 101.066 107.69 101.092 108.57L101.51 122.906C101.536 123.786 102.269 124.478 103.149 124.452C104.029 124.427 104.721 123.693 104.696 122.813L104.324 110.07L117.067 109.698C117.947 109.673 118.639 108.939 118.614 108.059C118.588 107.179 117.854 106.487 116.974 106.513L102.638 106.931ZM225.719 222.396L103.778 107.364L101.591 109.683L223.531 224.714L225.719 222.396Z" fill="black"/>
</g>
<defs>
<radialGradient id="paint0_radial_161_3247" cx="0" cy="0" r="1" gradientUnits="userSpaceOnUse" gradientTransform="translate(206.626 318.406) rotate(-125.327) scale(57.2019 73.9395)">
<stop/>
<stop offset="0.901042" stop-color="#AFAFF2"/>
</radialGradient>
<radialGradient id="paint1_radial_161_3247" cx="0" cy="0" r="1" gradientUnits="userSpaceOnUse" gradientTransform="translate(163.619 323.734) rotate(-106.12) scale(54.7895 64.3292)">
<stop/>
<stop offset="0.901042" stop-color="#AFAFF2"/>
</radialGradient>
<radialGradient id="paint2_radial_161_3247" cx="0" cy="0" r="1" gradientUnits="userSpaceOnUse" gradientTransform="translate(124.538 318.579) rotate(-90.8027) scale(54.0631 60.8473)">
<stop/>
<stop offset="0.901042" stop-color="#AFAFF2"/>
</radialGradient>
<radialGradient id="paint3_radial_161_3247" cx="0" cy="0" r="1" gradientUnits="userSpaceOnUse" gradientTransform="translate(89.0826 304.746) rotate(-77.3866) scale(54.067 60.8429)">
<stop/>
<stop offset="0.901042" stop-color="#AFAFF2"/>
</radialGradient>
<radialGradient id="paint4_radial_161_3247" cx="0" cy="0" r="1" gradientUnits="userSpaceOnUse" gradientTransform="translate(59.1438 284.197) rotate(-64.3183) scale(54.0784 60.8301)">
<stop/>
<stop offset="0.901042" stop-color="#AFAFF2"/>
</radialGradient>
<radialGradient id="paint5_radial_161_3247" cx="0" cy="0" r="1" gradientUnits="userSpaceOnUse" gradientTransform="translate(34.9114 258.403) rotate(-52.4697) scale(54.8138 64.3007)">
<stop/>
<stop offset="0.901042" stop-color="#AFAFF2"/>
</radialGradient>
<radialGradient id="paint6_radial_161_3247" cx="0" cy="0" r="1" gradientUnits="userSpaceOnUse" gradientTransform="translate(8.94155 202.247) rotate(-29.2786) scale(54.1258 60.7769)">
<stop/>
<stop offset="0.901042" stop-color="#AFAFF2"/>
</radialGradient>
<radialGradient id="paint7_radial_161_3247" cx="0" cy="0" r="1" gradientUnits="userSpaceOnUse" gradientTransform="translate(3.93331 167.236) rotate(-17.4487) scale(54.857 64.25)">
<stop/>
<stop offset="0.901042" stop-color="#AFAFF2"/>
</radialGradient>
<radialGradient id="paint8_radial_161_3247" cx="0" cy="0" r="1" gradientUnits="userSpaceOnUse" gradientTransform="translate(8.24786 128.31) rotate(-2.51821) scale(54.1445 60.7558)">
<stop/>
<stop offset="0.901042" stop-color="#AFAFF2"/>
</radialGradient>
<radialGradient id="paint9_radial_161_3247" cx="0" cy="0" r="1" gradientUnits="userSpaceOnUse" gradientTransform="translate(20.2616 93.8693) rotate(10.8585) scale(54.1418 60.7589)">
<stop/>
<stop offset="0.901042" stop-color="#AFAFF2"/>
</radialGradient>
<radialGradient id="paint10_radial_161_3247" cx="0" cy="0" r="1" gradientUnits="userSpaceOnUse" gradientTransform="translate(40.1317 62.5162) rotate(23.0274) scale(54.8532 64.2545)">
<stop/>
<stop offset="0.901042" stop-color="#AFAFF2"/>
</radialGradient>
<radialGradient id="paint11_radial_161_3247" cx="0" cy="0" r="1" gradientUnits="userSpaceOnUse" gradientTransform="translate(62.8194 37.2675) rotate(31.324) scale(59.0069 79.6419)">
<stop/>
<stop offset="0.901042" stop-color="#AFAFF2"/>
</radialGradient>
<radialGradient id="paint12_radial_161_3247" cx="0" cy="0" r="1" gradientUnits="userSpaceOnUse" gradientTransform="translate(111.006 13.1545) rotate(55.4891) scale(54.0893 60.8179)">
<stop/>
<stop offset="0.901042" stop-color="#AFAFF2"/>
</radialGradient>
<radialGradient id="paint13_radial_161_3247" cx="0" cy="0" r="1" gradientUnits="userSpaceOnUse" gradientTransform="translate(148.365 4.88664) rotate(69.2371) scale(54.0776 60.831)">
<stop/>
<stop offset="0.901042" stop-color="#AFAFF2"/>
</radialGradient>
<radialGradient id="paint14_radial_161_3247" cx="0" cy="0" r="1" gradientUnits="userSpaceOnUse" gradientTransform="translate(186.62 5.71525) rotate(82.999) scale(54.0643 60.8459)">
<stop/>
<stop offset="0.901042" stop-color="#AFAFF2"/>
</radialGradient>
<radialGradient id="paint15_radial_161_3247" cx="0" cy="0" r="1" gradientUnits="userSpaceOnUse" gradientTransform="translate(222.6 14.9807) rotate(95.2013) scale(54.7839 64.3358)">
<stop/>
<stop offset="0.901042" stop-color="#AFAFF2"/>
</radialGradient>
<radialGradient id="paint16_radial_161_3247" cx="0" cy="0" r="1" gradientUnits="userSpaceOnUse" gradientTransform="translate(274.827 48.6239) rotate(118.77) scale(54.082 60.8261)">
<stop/>
<stop offset="0.901042" stop-color="#AFAFF2"/>
</radialGradient>
<radialGradient id="paint17_radial_161_3247" cx="0" cy="0" r="1" gradientUnits="userSpaceOnUse" gradientTransform="translate(298.62 77.1226) rotate(130.96) scale(54.8187 64.295)">
<stop/>
<stop offset="0.901042" stop-color="#AFAFF2"/>
</radialGradient>
<radialGradient id="paint18_radial_161_3247" cx="0" cy="0" r="1" gradientUnits="userSpaceOnUse" gradientTransform="translate(315.38 112.532) rotate(145.91) scale(54.119 60.7844)">
<stop/>
<stop offset="0.901042" stop-color="#AFAFF2"/>
</radialGradient>
<radialGradient id="paint19_radial_161_3247" cx="0" cy="0" r="1" gradientUnits="userSpaceOnUse" gradientTransform="translate(324.463 143.087) rotate(153.313) scale(58.1109 76.8264)">
<stop/>
<stop offset="0.901042" stop-color="#AFAFF2"/>
</radialGradient>
<radialGradient id="paint20_radial_161_3247" cx="0" cy="0" r="1" gradientUnits="userSpaceOnUse" gradientTransform="translate(321.545 192.826) rotate(174.207) scale(54.865 64.2407)">
<stop/>
<stop offset="0.901042" stop-color="#AFAFF2"/>
</radialGradient>
<radialGradient id="paint21_radial_161_3247" cx="0" cy="0" r="1" gradientUnits="userSpaceOnUse" gradientTransform="translate(314.721 238.795) rotate(-163.841) scale(54.8594 64.2472)">
<stop/>
<stop offset="0.901042" stop-color="#AFAFF2"/>
</radialGradient>
<radialGradient id="paint22_radial_161_3247" cx="0" cy="0" r="1" gradientUnits="userSpaceOnUse" gradientTransform="translate(292.34 270.757) rotate(-148.56) scale(54.1225 60.7806)">
<stop/>
<stop offset="0.901042" stop-color="#AFAFF2"/>
</radialGradient>
<radialGradient id="paint23_radial_161_3247" cx="0" cy="0" r="1" gradientUnits="userSpaceOnUse" gradientTransform="translate(273.151 289.183) rotate(-149.623) scale(58.1061 76.8327)">
<stop/>
<stop offset="0.901042" stop-color="#AFAFF2"/>
</radialGradient>
<radialGradient id="paint24_radial_161_3247" cx="0" cy="0" r="1" gradientUnits="userSpaceOnUse" gradientTransform="translate(238.335 308.194) rotate(-137.517) scale(53.4278 57.173)">
<stop/>
<stop offset="0.901042" stop-color="#AFAFF2"/>
</radialGradient>
<radialGradient id="paint25_radial_161_3247" cx="0" cy="0" r="1" gradientUnits="userSpaceOnUse" gradientTransform="translate(17.8983 221.982) rotate(-39.4697) scale(50.2998 32.6998)">
<stop/>
<stop offset="0.901042" stop-color="#AFAFF2"/>
</radialGradient>
</defs>
</svg>
