<svg width="347" height="355" viewBox="0 0 347 355" fill="none" xmlns="http://www.w3.org/2000/svg">
<g opacity="0.1">
<path d="M166.111 343.978L163.972 314.302L168.435 313.981L170.298 339.832L184.268 338.828L182.404 312.977L186.868 312.656L189.006 342.333L166.111 343.978Z" fill="url(#paint0_radial_157_2964)"/>
<path d="M144.526 310.854C146.582 311.24 148.287 312.048 149.642 313.278C150.997 314.508 151.939 316.05 152.467 317.903C152.995 319.757 153.045 321.816 152.619 324.081C152.19 326.356 151.392 328.266 150.223 329.81C149.055 331.355 147.616 332.454 145.906 333.109C144.196 333.763 142.313 333.897 140.257 333.511C138.201 333.125 136.495 332.316 135.14 331.086C133.785 329.856 132.844 328.31 132.318 326.447C131.792 324.584 131.743 322.515 132.172 320.24C132.599 317.975 133.395 316.075 134.562 314.54C135.728 313.005 137.166 311.91 138.876 311.256C140.587 310.601 142.47 310.467 144.526 310.854ZM143.836 314.434C142.504 314.184 141.333 314.329 140.325 314.869C139.316 315.408 138.492 316.224 137.853 317.316C137.204 318.407 136.747 319.656 136.481 321.065C136.218 322.464 136.19 323.789 136.398 325.04C136.594 326.299 137.063 327.368 137.804 328.246C138.545 329.124 139.582 329.689 140.915 329.939C142.257 330.191 143.438 330.043 144.458 329.496C145.468 328.947 146.298 328.122 146.949 327.022C147.589 325.93 148.04 324.685 148.304 323.285C148.569 321.877 148.603 320.548 148.404 319.298C148.197 318.047 147.721 316.987 146.978 316.118C146.226 315.248 145.178 314.686 143.836 314.434Z" fill="url(#paint1_radial_157_2964)"/>
<path d="M123.373 306.177L121.83 309.609L121.102 309.28C120.537 309.024 120.011 308.929 119.524 308.995C119.023 309.067 118.518 309.337 118.006 309.807C117.495 310.278 116.941 310.994 116.344 311.957C115.743 312.929 115.057 314.181 114.286 315.714L109.843 324.547L95.6561 318.123L104.884 297.805L108.762 299.561L101.084 316.466L107.728 319.474L111.181 312.713C112.022 311.074 112.859 309.688 113.692 308.556C114.517 307.419 115.366 306.544 116.241 305.93C117.111 305.325 118.029 304.991 118.994 304.928C119.954 304.874 120.991 305.098 122.102 305.602L123.373 306.177Z" fill="url(#paint2_radial_157_2964)"/>
<path d="M95.5435 282.166C96.0566 282.563 96.4911 282.967 96.8469 283.377C97.2087 283.78 97.4574 284.107 97.5929 284.359L94.5826 286.53C94.0853 285.875 93.5827 285.37 93.0748 285.013C92.5668 284.657 91.9915 284.505 91.349 284.559C90.6987 284.607 89.9251 284.908 89.0282 285.463L87.6942 286.304L80.2847 309.157L76.6087 306.311L82.762 289.173L82.5782 289.031L67.4878 299.249L63.8004 296.394L86.5858 282.047C87.6356 281.39 88.6675 280.945 89.6813 280.714C90.7011 280.474 91.6956 280.473 92.665 280.709C93.6344 280.945 94.5939 281.431 95.5435 282.166Z" fill="url(#paint3_radial_157_2964)"/>
<path d="M40.258 270.437L57.5722 256.359L60.2533 259.646L42.9391 273.724L40.258 270.437ZM49.4612 265.332L52.3695 262.967C53.0023 263.314 53.637 263.709 54.2736 264.153C54.9028 264.602 55.5226 265.109 56.1331 265.674C56.7436 266.239 57.3304 266.866 57.8935 267.557C59.6381 269.696 60.5023 271.821 60.4861 273.931C60.4623 276.047 59.3683 277.985 57.2041 279.745L51.5454 284.346L48.8735 281.07L54.5322 276.469C55.3513 275.803 55.8939 275.112 56.1601 274.396C56.4262 273.681 56.4531 272.947 56.2406 272.196C56.0281 271.445 55.6096 270.687 54.9853 269.921C54.1589 268.908 53.3029 268.05 52.4172 267.347C51.5179 266.643 50.5326 265.971 49.4612 265.332Z" fill="url(#paint4_radial_157_2964)"/>
<path d="M43.0169 244.064L24.1179 242.252L22.0823 238.04L42.1856 228.354L44.0378 232.187L29.4054 239.237L48.2986 241.003L50.3531 245.254L30.2497 254.941L28.3975 251.108L43.0169 244.064Z" fill="url(#paint5_radial_157_2964)"/>
<path d="M33.237 186.4C33.3923 188.555 33.0382 190.444 32.1746 192.07C31.3007 193.686 30.0291 194.972 28.3598 195.927C26.6905 196.883 24.7401 197.44 22.5085 197.601C20.248 197.763 18.2224 197.482 16.4319 196.756C14.6317 196.031 13.1881 194.931 12.1009 193.455C11.0137 191.98 10.3946 190.194 10.2434 188.098C10.1215 186.407 10.3268 184.878 10.8593 183.509C11.3822 182.141 12.1746 181.011 13.2367 180.119C14.2981 179.217 15.5719 178.635 17.0582 178.373L17.3622 182.59C16.3356 182.897 15.4755 183.492 14.7819 184.377C14.0876 185.253 13.7902 186.381 13.8899 187.763C13.9769 188.97 14.372 190.005 15.0751 190.867C15.7678 191.72 16.7167 192.356 17.9218 192.774C19.1173 193.193 20.5072 193.346 22.0915 193.232C23.7145 193.115 25.0975 192.768 26.2405 192.191C27.3836 191.613 28.2463 190.852 28.8288 189.907C29.4106 188.953 29.6572 187.862 29.5687 186.635C29.5095 185.814 29.3062 185.081 28.9586 184.436C28.6007 183.782 28.1204 183.248 27.5177 182.835C26.9143 182.412 26.2051 182.138 25.39 182.012L25.086 177.796C26.5365 177.847 27.8551 178.223 29.0418 178.924C30.2285 179.625 31.1929 180.609 31.9349 181.877C32.6761 183.134 33.1102 184.642 33.237 186.4Z" fill="url(#paint6_radial_157_2964)"/>
<path d="M34.6242 155.519C34.2865 157.583 33.5186 159.308 32.3205 160.692C31.1225 162.077 29.6031 163.056 27.7625 163.629C25.9218 164.202 23.864 164.303 21.5889 163.932C19.3043 163.559 17.3761 162.808 15.8042 161.678C14.2322 160.548 13.099 159.137 12.4043 157.443C11.7097 155.75 11.5312 153.871 11.8689 151.806C12.2067 149.742 12.9745 148.017 14.1726 146.633C15.3706 145.248 16.8948 144.27 18.745 143.699C20.5952 143.127 22.6626 143.028 24.9472 143.4C27.2223 143.772 29.141 144.521 30.7033 145.65C32.2657 146.778 33.3942 148.189 34.0888 149.882C34.7834 151.575 34.9619 153.454 34.6242 155.519ZM31.0276 154.917C31.2464 153.579 31.0741 152.413 30.5106 151.418C29.9471 150.423 29.1118 149.62 28.0048 149.007C26.8994 148.385 25.6394 147.959 24.2246 147.728C22.8195 147.499 21.4938 147.503 20.2477 147.742C18.9936 147.969 17.9362 148.464 17.0754 149.226C16.2146 149.988 15.6748 151.039 15.4559 152.377C15.2355 153.725 15.411 154.901 15.9825 155.907C16.5556 156.904 17.3997 157.714 18.5146 158.337C19.6216 158.95 20.8777 159.37 22.2828 159.6C23.6976 159.83 25.0272 159.831 26.2718 159.603C27.5179 159.364 28.5665 158.863 29.4177 158.099C30.2705 157.326 30.8071 156.265 31.0276 154.917Z" fill="url(#paint7_radial_157_2964)"/>
<path d="M39.5712 132.675L18.9762 124.083L22.5482 115.546C23.5202 113.223 24.7864 111.59 26.3469 110.645C27.8984 109.697 29.5188 109.576 31.2083 110.281C32.415 110.784 33.2107 111.567 33.5954 112.63C33.9801 113.693 34.0276 114.909 33.7381 116.279C34.2305 115.403 34.8608 114.674 35.6293 114.092C36.3888 113.507 37.2367 113.136 38.173 112.981C39.1131 112.817 40.0971 112.95 41.125 113.378C42.2156 113.833 43.0632 114.517 43.668 115.431C44.2637 116.341 44.5742 117.43 44.5994 118.7C44.6193 119.957 44.3153 121.336 43.6872 122.837L39.5712 132.675ZM37.7949 127.51L40.3352 121.439C40.7501 120.447 40.8385 119.571 40.6002 118.811C40.362 118.05 39.8362 117.5 39.0227 117.161C38.0663 116.762 37.1977 116.73 36.4169 117.066C35.6271 117.397 35.0248 118.059 34.6098 119.051L32.0696 125.122L37.7949 127.51ZM29.1332 123.897L31.1463 119.086C31.4603 118.335 31.6222 117.647 31.632 117.022C31.6455 116.387 31.5154 115.845 31.2418 115.395C30.9629 114.932 30.5508 114.587 30.0055 114.36C29.21 114.028 28.4523 114.095 27.7324 114.561C27.0126 115.026 26.4153 115.827 25.9405 116.961L23.9442 121.733L29.1332 123.897Z" fill="url(#paint8_radial_157_2964)"/>
<path d="M58.9297 97.0645C57.6339 98.8406 56.1381 100.094 54.4422 100.825C52.7442 101.542 50.9479 101.744 49.0535 101.432C47.157 101.107 45.2727 100.263 43.4007 98.9017C41.5521 97.5572 40.1741 96.028 39.2665 94.314C38.3647 92.5922 37.972 90.8215 38.0885 89.002C38.2107 87.1747 38.8826 85.4238 40.1041 83.7493C40.8462 82.7322 41.7338 81.8687 42.767 81.1591C43.8002 80.4495 44.954 79.9773 46.2283 79.7424C47.5026 79.5075 48.8753 79.5897 50.3463 79.989C51.8096 80.3826 53.3597 81.1747 54.9967 82.3654L56.2422 83.2712L45.7876 97.6018L43.1558 95.6877L51.1016 84.7959C50.1773 84.1237 49.2218 83.7161 48.2351 83.5733C47.2405 83.4247 46.2873 83.5399 45.3755 83.9187C44.4695 84.2896 43.6854 84.9289 43.0233 85.8366C42.304 86.8225 41.9189 87.8598 41.868 88.9485C41.8149 90.0237 42.0306 91.0428 42.5149 92.0059C42.9971 92.9554 43.6886 93.7577 44.5893 94.4129L46.6454 95.9083C47.8517 96.7857 49.0319 97.3207 50.186 97.5134C51.3459 97.6984 52.4288 97.5698 53.4347 97.1277C54.4327 96.6799 55.3056 95.9435 56.0534 94.9185C56.5386 94.2534 56.887 93.5787 57.0985 92.8942C57.3023 92.2041 57.3578 91.5199 57.2651 90.8417C57.1725 90.1635 56.9212 89.5137 56.5114 88.8923L59.5337 86.0066C60.3187 86.9847 60.8282 88.0858 61.0621 89.3099C61.294 90.5204 61.2368 91.7903 60.8906 93.1193C60.5423 94.4349 59.8887 95.7499 58.9297 97.0645Z" fill="url(#paint9_radial_157_2964)"/>
<path d="M78.8748 85.4475L59.0569 62.0228L62.2996 59.2876L64.6361 62.0493L64.9137 61.8152C64.8059 61.2979 64.7364 60.6533 64.705 59.8815C64.6737 59.1097 64.8331 58.2784 65.1831 57.3876C65.527 56.4894 66.2282 55.5938 67.2869 54.7008C68.664 53.5393 70.187 52.8502 71.8559 52.6335C73.5248 52.4169 75.2202 52.7038 76.9419 53.4942C78.671 54.2784 80.3144 55.5911 81.8721 57.4323C83.4297 59.2734 84.4581 61.1112 84.9571 62.9457C85.4499 64.7727 85.4598 66.4939 84.9868 68.1093C84.5076 69.7172 83.5795 71.1019 82.2024 72.2634C81.1659 73.1376 80.1712 73.6789 79.2183 73.8871C78.2728 74.0891 77.4179 74.1133 76.6536 73.9597C75.8893 73.8061 75.254 73.6325 74.7476 73.4388L74.5477 73.6074L82.1952 82.6467L78.8748 85.4475ZM69.5172 67.7963C70.5306 68.9942 71.5929 69.8974 72.704 70.506C73.8152 71.1146 74.916 71.3961 76.0066 71.3505C77.0909 71.2975 78.1106 70.8683 79.0656 70.0627C80.0577 69.2259 80.6648 68.264 80.8869 67.177C81.1028 66.0826 80.9963 64.9371 80.5675 63.7403C80.146 62.5374 79.4535 61.3665 78.4902 60.2278C77.5393 59.1039 76.5151 58.2382 75.4177 57.6308C74.3276 57.0171 73.2267 56.7356 72.1151 56.7863C71.0109 56.8307 69.9591 57.2744 68.9596 58.1174C67.9972 58.9293 67.3923 59.8639 67.1452 60.9213C66.9054 61.9725 66.9905 63.0853 67.4007 64.2599C67.8108 65.4345 68.5163 66.6133 69.5172 67.7963Z" fill="url(#paint10_radial_157_2964)"/>
<path d="M89.8721 38.6371L93.7394 36.8584L101.511 53.7046L108.52 50.4811L100.748 33.6349L104.615 31.8562L112.387 48.7024L119.396 45.4789L111.624 28.6327L115.491 26.854L124.839 47.117L99.2198 58.9L89.8721 38.6371Z" fill="url(#paint11_radial_157_2964)"/>
<path d="M147.056 42.7539C144.886 43.1077 142.942 42.9489 141.222 42.2773C139.511 41.5946 138.092 40.4768 136.964 38.9236C135.845 37.3594 135.098 35.4351 134.725 33.1506C134.356 30.8948 134.451 28.8381 135.011 26.9804C135.58 25.1212 136.546 23.585 137.908 22.3717C139.28 21.157 140.988 20.3828 143.034 20.0492C144.277 19.8466 145.515 19.8557 146.748 20.0766C147.982 20.2974 149.134 20.772 150.205 21.5001C151.276 22.2283 152.194 23.2513 152.959 24.5691C153.723 25.8774 154.268 27.5303 154.595 29.528L154.843 31.0478L137.336 33.9025L136.81 30.6909L150.117 28.5212C149.932 27.3933 149.539 26.4319 148.938 25.6369C148.336 24.8323 147.577 24.2446 146.663 23.8736C145.758 23.501 144.751 23.4051 143.642 23.5859C142.437 23.7823 141.434 24.2501 140.633 24.9892C139.839 25.7172 139.276 26.5941 138.943 27.6199C138.618 28.6346 138.546 29.6915 138.726 30.7907L139.136 33.2998C139.377 34.7718 139.84 35.9819 140.525 36.93C141.219 37.8766 142.079 38.5459 143.105 38.938C144.13 39.3205 145.268 39.4097 146.52 39.2055C147.333 39.073 148.055 38.8375 148.686 38.499C149.317 38.151 149.837 37.703 150.248 37.1551C150.659 36.6073 150.937 35.9682 151.083 35.2379L155.26 35.3075C155.13 36.5553 154.719 37.697 154.024 38.7327C153.338 39.7572 152.405 40.6209 151.224 41.3236C150.052 42.0153 148.662 42.4921 147.056 42.7539Z" fill="url(#paint12_radial_157_2964)"/>
<path d="M186.175 28.3184L185.882 32.0697L173.831 31.1288L174.124 27.3774L186.175 28.3184ZM176.064 18.2172L174.326 40.4645L170.082 40.1332L171.82 17.8858L176.064 18.2172ZM189.925 19.2995L188.187 41.5468L183.958 41.2166L185.695 18.9692L189.925 19.2995Z" fill="url(#paint13_radial_157_2964)"/>
<path d="M221.064 36.5783L219.886 40.1521L208.402 36.3809L209.58 32.807L221.064 36.5783ZM213.643 24.3703L206.662 45.5653L202.618 44.2372L209.599 23.0422L213.643 24.3703ZM226.853 28.7082L219.871 49.9031L215.841 48.5796L222.822 27.3846L226.853 28.7082Z" fill="url(#paint14_radial_157_2964)"/>
<path d="M240.999 61.288C239.223 60.1823 237.927 58.8107 237.111 57.1732C236.296 55.5358 235.978 53.7581 236.16 51.8402C236.341 49.9223 237.042 47.9858 238.263 46.0306C239.49 44.0672 240.928 42.578 242.578 41.5631C244.228 40.5482 245.969 40.0462 247.8 40.0571C249.632 40.068 251.436 40.6263 253.212 41.732C254.988 42.8377 256.284 44.2093 257.099 45.8468C257.915 47.4843 258.23 49.2661 258.043 51.1922C257.857 53.1183 257.15 55.063 255.924 57.0264C254.703 58.9816 253.27 60.4625 251.625 61.4692C249.98 62.4759 248.242 62.9738 246.411 62.9629C244.579 62.952 242.775 62.3937 240.999 61.288ZM242.943 58.2027C244.094 58.9194 245.238 59.2093 246.374 59.0723C247.51 58.9353 248.574 58.4742 249.567 57.689C250.568 56.9089 251.448 55.911 252.207 54.6951C252.962 53.4875 253.469 52.2633 253.73 51.0225C254.005 49.7786 253.956 48.6131 253.584 47.526C253.213 46.4389 252.451 45.537 251.3 44.8204C250.141 44.0986 248.987 43.8077 247.837 43.9478C246.696 44.0929 245.622 44.5597 244.616 45.348C243.623 46.1332 242.75 47.1296 241.996 48.3372C241.236 49.5531 240.722 50.7788 240.453 52.0145C240.192 53.2553 240.25 54.4152 240.627 55.494C241.012 56.578 241.784 57.4809 242.943 58.2027Z" fill="url(#paint15_radial_157_2964)"/>
<path d="M293.474 93.2016L290.431 95.4149L283.307 85.6498L286.35 83.4366L293.474 93.2016ZM294.577 78.9619L276.531 92.0877L274.022 88.6488L292.068 75.5231L294.577 78.9619ZM302.771 90.1941L284.725 103.32L282.224 99.8927L300.271 86.7669L302.771 90.1941Z" fill="url(#paint16_radial_157_2964)"/>
<path d="M295.217 124.879C294.422 122.945 294.171 121.074 294.464 119.268C294.758 117.462 295.539 115.834 296.806 114.382C298.073 112.931 299.773 111.768 301.906 110.893C304.047 110.015 306.084 109.645 308.016 109.785C309.948 109.924 311.654 110.533 313.135 111.611C314.615 112.689 315.753 114.196 316.549 116.131C317.345 118.065 317.596 119.936 317.302 121.742C317.008 123.548 316.223 125.178 314.947 126.633C313.671 128.088 311.962 129.255 309.821 130.133C307.688 131.008 305.66 131.374 303.737 131.231C301.814 131.088 300.112 130.477 298.632 129.399C297.152 128.321 296.013 126.814 295.217 124.879ZM298.597 123.509C299.113 124.763 299.872 125.666 300.874 126.218C301.876 126.77 303.009 127.017 304.273 126.959C305.541 126.911 306.839 126.614 308.165 126.07C309.482 125.53 310.609 124.832 311.545 123.977C312.494 123.127 313.135 122.152 313.468 121.053C313.802 119.953 313.71 118.776 313.194 117.522C312.675 116.259 311.908 115.349 310.893 114.792C309.882 114.243 308.738 113.995 307.461 114.048C306.196 114.106 304.906 114.405 303.588 114.945C302.262 115.489 301.129 116.184 300.189 117.031C299.253 117.886 298.622 118.861 298.298 119.957C297.978 121.062 298.077 122.246 298.597 123.509Z" fill="url(#paint17_radial_157_2964)"/>
<path d="M303.011 146.923L325.056 143.463L326.496 152.605C326.887 155.092 326.667 157.147 325.834 158.768C325.01 160.387 323.694 161.339 321.886 161.623C320.594 161.825 319.505 161.575 318.62 160.87C317.734 160.166 317.056 159.155 316.583 157.837C316.624 158.841 316.469 159.791 316.121 160.689C315.781 161.586 315.254 162.345 314.538 162.967C313.824 163.599 312.916 164.001 311.816 164.174C310.649 164.357 309.568 164.218 308.573 163.756C307.589 163.293 306.752 162.527 306.065 161.459C305.388 160.398 304.923 159.065 304.67 157.457L303.011 146.923ZM307.234 150.393L308.258 156.894C308.425 157.956 308.81 158.749 309.412 159.272C310.014 159.795 310.75 159.988 311.621 159.851C312.645 159.691 313.401 159.263 313.89 158.569C314.388 157.873 314.553 156.994 314.386 155.932L313.363 149.431L307.234 150.393ZM316.506 148.937L317.317 154.09C317.444 154.893 317.667 155.564 317.987 156.102C318.308 156.65 318.704 157.043 319.173 157.284C319.653 157.532 320.185 157.61 320.769 157.518C321.62 157.385 322.23 156.931 322.599 156.158C322.967 155.384 323.056 154.39 322.865 153.175L322.06 148.066L316.506 148.937Z" fill="url(#paint18_radial_157_2964)"/>
<path d="M320.948 182.469L320.288 188.915C320.01 191.632 319.122 193.654 317.623 194.981C316.124 196.307 314.31 196.862 312.18 196.645C310.793 196.503 309.579 196.048 308.538 195.28C307.497 194.512 306.718 193.464 306.202 192.136C305.695 190.808 305.534 189.239 305.72 187.428L306.713 177.73L328.912 179.996L328.479 184.231L310.008 182.345L309.449 187.808C309.321 189.051 309.54 190.106 310.103 190.971C310.677 191.838 311.469 192.323 312.481 192.426C313.55 192.535 314.463 192.224 315.22 191.493C315.986 190.764 316.432 189.777 316.56 188.534L317.219 182.088L320.948 182.469ZM304.53 199.048L326.73 201.313L326.288 205.635L304.088 203.369L304.53 199.048Z" fill="url(#paint19_radial_157_2964)"/>
<path d="M304.708 222.816L316.344 237.794L314.669 242.162L293.825 234.194L295.35 230.219L310.521 236.019L298.855 221.076L300.546 216.668L321.39 224.636L319.866 228.611L304.708 222.816ZM324.067 238.755L322.787 242.092C321.258 241.508 320.222 240.49 319.679 239.038C319.142 237.599 319.225 235.961 319.929 234.125C320.63 232.299 321.661 231.029 323.024 230.316C324.396 229.606 325.846 229.544 327.375 230.128L326.1 233.452C325.422 233.192 324.744 233.161 324.067 233.358C323.398 233.559 322.879 234.143 322.508 235.111C322.144 236.061 322.141 236.837 322.501 237.442C322.857 238.055 323.379 238.493 324.067 238.755Z" fill="url(#paint20_radial_157_2964)"/>
<path d="M286.134 257.748C287.56 256.218 289.156 255.208 290.921 254.72C292.687 254.232 294.495 254.259 296.346 254.802C298.196 255.344 299.966 256.4 301.655 257.969C303.351 259.544 304.54 261.238 305.223 263.048C305.905 264.859 306.066 266.661 305.706 268.454C305.345 270.248 304.452 271.91 303.026 273.44C301.599 274.971 300.004 275.98 298.238 276.469C296.472 276.957 294.661 276.926 292.803 276.377C290.945 275.828 289.168 274.765 287.472 273.19C285.784 271.621 284.601 269.934 283.926 268.13C283.251 266.326 283.093 264.528 283.454 262.734C283.814 260.941 284.707 259.279 286.134 257.748ZM288.795 260.241C287.871 261.233 287.368 262.299 287.285 263.438C287.203 264.578 287.453 265.709 288.035 266.832C288.611 267.961 289.424 269.014 290.474 269.99C291.517 270.959 292.624 271.689 293.794 272.181C294.964 272.687 296.119 272.861 297.259 272.703C298.398 272.546 299.43 271.971 300.355 270.979C301.286 269.98 301.792 268.904 301.874 267.75C301.949 266.604 301.695 265.463 301.113 264.326C300.53 263.204 299.718 262.158 298.675 261.189C297.624 260.213 296.518 259.476 295.354 258.977C294.184 258.485 293.033 258.321 291.901 258.485C290.761 258.656 289.726 259.241 288.795 260.241Z" fill="url(#paint21_radial_157_2964)"/>
<path d="M272.476 275.918L284.749 294.555L269.531 304.546L257.259 285.909L260.817 283.572L271.028 299.079L279.153 293.745L268.942 278.238L272.476 275.918Z" fill="url(#paint22_radial_157_2964)"/>
<path d="M251.969 309.405L246.195 312.346C243.762 313.585 241.58 313.936 239.652 313.396C237.723 312.857 236.272 311.634 235.298 309.728C234.663 308.486 234.386 307.22 234.466 305.929C234.547 304.638 235.004 303.416 235.84 302.262C236.679 301.117 237.911 300.131 239.533 299.305L248.22 294.88L258.372 314.752L254.579 316.684L246.132 300.15L241.238 302.643C240.125 303.21 239.358 303.965 238.937 304.907C238.52 305.859 238.543 306.787 239.006 307.693C239.495 308.65 240.252 309.248 241.276 309.487C242.306 309.735 243.377 309.575 244.49 309.008L250.264 306.067L251.969 309.405ZM229.125 304.606L239.277 324.478L235.406 326.45L225.254 306.578L229.125 304.606Z" fill="url(#paint23_radial_157_2964)"/>
<path d="M227.156 326.743L228.675 330.17L211.453 337.781L209.934 334.354L216.592 331.412L209.068 314.438L212.948 312.723L220.472 329.697L227.156 326.743Z" fill="url(#paint24_radial_157_2964)"/>
<path d="M6.97862 222.919L26.1582 213.886L27.9418 217.493L9.09704 227.203L6.97862 222.919ZM34.9696 211.777C35.3258 212.498 35.3787 213.239 35.1281 213.999C34.8688 214.764 34.3765 215.32 33.6512 215.667C32.9431 216.027 32.2105 216.075 31.4534 215.811C30.6876 215.551 30.1265 215.061 29.7702 214.34C29.4225 213.637 29.3783 212.903 29.6376 212.138C29.8882 211.378 30.3675 210.817 31.0756 210.458C31.5577 210.231 32.0586 210.14 32.5784 210.186C33.0853 210.228 33.5525 210.387 33.9803 210.662C34.408 210.937 34.7377 211.309 34.9696 211.777Z" fill="url(#paint25_radial_157_2964)"/>
</g>
<defs>
<radialGradient id="paint0_radial_157_2964" cx="0" cy="0" r="1" gradientUnits="userSpaceOnUse" gradientTransform="translate(215.268 344.04) rotate(-125.327) scale(61.8015 79.885)">
<stop/>
<stop offset="0.901042" stop-color="#AFAFF2"/>
</radialGradient>
<radialGradient id="paint1_radial_157_2964" cx="0" cy="0" r="1" gradientUnits="userSpaceOnUse" gradientTransform="translate(168.802 349.793) rotate(-106.12) scale(59.1952 69.5019)">
<stop/>
<stop offset="0.901042" stop-color="#AFAFF2"/>
</radialGradient>
<radialGradient id="paint2_radial_157_2964" cx="0" cy="0" r="1" gradientUnits="userSpaceOnUse" gradientTransform="translate(126.581 344.225) rotate(-90.8027) scale(58.4104 65.74)">
<stop/>
<stop offset="0.901042" stop-color="#AFAFF2"/>
</radialGradient>
<radialGradient id="paint3_radial_157_2964" cx="0" cy="0" r="1" gradientUnits="userSpaceOnUse" gradientTransform="translate(88.2725 329.278) rotate(-77.3866) scale(58.4145 65.7353)">
<stop/>
<stop offset="0.901042" stop-color="#AFAFF2"/>
</radialGradient>
<radialGradient id="paint4_radial_157_2964" cx="0" cy="0" r="1" gradientUnits="userSpaceOnUse" gradientTransform="translate(55.9253 307.08) rotate(-64.3183) scale(58.4269 65.7214)">
<stop/>
<stop offset="0.901042" stop-color="#AFAFF2"/>
</radialGradient>
<radialGradient id="paint5_radial_157_2964" cx="0" cy="0" r="1" gradientUnits="userSpaceOnUse" gradientTransform="translate(29.7448 279.21) rotate(-52.4697) scale(59.2214 69.4711)">
<stop/>
<stop offset="0.901042" stop-color="#AFAFF2"/>
</radialGradient>
<radialGradient id="paint6_radial_157_2964" cx="0" cy="0" r="1" gradientUnits="userSpaceOnUse" gradientTransform="translate(1.68806 218.538) rotate(-29.2786) scale(58.478 65.664)">
<stop/>
<stop offset="0.901042" stop-color="#AFAFF2"/>
</radialGradient>
<radialGradient id="paint7_radial_157_2964" cx="0" cy="0" r="1" gradientUnits="userSpaceOnUse" gradientTransform="translate(-3.72439 180.713) rotate(-17.4487) scale(59.2681 69.4164)">
<stop/>
<stop offset="0.901042" stop-color="#AFAFF2"/>
</radialGradient>
<radialGradient id="paint8_radial_157_2964" cx="0" cy="0" r="1" gradientUnits="userSpaceOnUse" gradientTransform="translate(0.938405 138.658) rotate(-2.51821) scale(58.4983 65.6412)">
<stop/>
<stop offset="0.901042" stop-color="#AFAFF2"/>
</radialGradient>
<radialGradient id="paint9_radial_157_2964" cx="0" cy="0" r="1" gradientUnits="userSpaceOnUse" gradientTransform="translate(13.9181 101.445) rotate(10.8585) scale(58.4953 65.6445)">
<stop/>
<stop offset="0.901042" stop-color="#AFAFF2"/>
</radialGradient>
<radialGradient id="paint10_radial_157_2964" cx="0" cy="0" r="1" gradientUnits="userSpaceOnUse" gradientTransform="translate(35.3863 67.5733) rotate(23.0274) scale(59.2639 69.4212)">
<stop/>
<stop offset="0.901042" stop-color="#AFAFF2"/>
</radialGradient>
<radialGradient id="paint11_radial_157_2964" cx="0" cy="0" r="1" gradientUnits="userSpaceOnUse" gradientTransform="translate(59.8984 40.2918) rotate(31.324) scale(63.7516 86.0459)">
<stop/>
<stop offset="0.901042" stop-color="#AFAFF2"/>
</radialGradient>
<radialGradient id="paint12_radial_157_2964" cx="0" cy="0" r="1" gradientUnits="userSpaceOnUse" gradientTransform="translate(111.96 14.2421) rotate(55.4891) scale(58.4386 65.7082)">
<stop/>
<stop offset="0.901042" stop-color="#AFAFF2"/>
</radialGradient>
<radialGradient id="paint13_radial_157_2964" cx="0" cy="0" r="1" gradientUnits="userSpaceOnUse" gradientTransform="translate(152.322 5.30692) rotate(69.2371) scale(58.426 65.7224)">
<stop/>
<stop offset="0.901042" stop-color="#AFAFF2"/>
</radialGradient>
<radialGradient id="paint14_radial_157_2964" cx="0" cy="0" r="1" gradientUnits="userSpaceOnUse" gradientTransform="translate(193.651 6.20382) rotate(82.999) scale(58.4116 65.7385)">
<stop/>
<stop offset="0.901042" stop-color="#AFAFF2"/>
</radialGradient>
<radialGradient id="paint15_radial_157_2964" cx="0" cy="0" r="1" gradientUnits="userSpaceOnUse" gradientTransform="translate(232.528 16.2151) rotate(95.2013) scale(59.189 69.5091)">
<stop/>
<stop offset="0.901042" stop-color="#AFAFF2"/>
</radialGradient>
<radialGradient id="paint16_radial_157_2964" cx="0" cy="0" r="1" gradientUnits="userSpaceOnUse" gradientTransform="translate(288.954 52.5621) rotate(118.77) scale(58.4307 65.7171)">
<stop/>
<stop offset="0.901042" stop-color="#AFAFF2"/>
</radialGradient>
<radialGradient id="paint17_radial_157_2964" cx="0" cy="0" r="1" gradientUnits="userSpaceOnUse" gradientTransform="translate(314.661 83.3524) rotate(130.96) scale(59.2266 69.4649)">
<stop/>
<stop offset="0.901042" stop-color="#AFAFF2"/>
</radialGradient>
<radialGradient id="paint18_radial_157_2964" cx="0" cy="0" r="1" gradientUnits="userSpaceOnUse" gradientTransform="translate(332.765 121.611) rotate(145.91) scale(58.4707 65.6721)">
<stop/>
<stop offset="0.901042" stop-color="#AFAFF2"/>
</radialGradient>
<radialGradient id="paint19_radial_157_2964" cx="0" cy="0" r="1" gradientUnits="userSpaceOnUse" gradientTransform="translate(342.581 154.621) rotate(153.313) scale(62.7836 83.004)">
<stop/>
<stop offset="0.901042" stop-color="#AFAFF2"/>
</radialGradient>
<radialGradient id="paint20_radial_157_2964" cx="0" cy="0" r="1" gradientUnits="userSpaceOnUse" gradientTransform="translate(339.427 208.361) rotate(174.207) scale(59.2767 69.4063)">
<stop/>
<stop offset="0.901042" stop-color="#AFAFF2"/>
</radialGradient>
<radialGradient id="paint21_radial_157_2964" cx="0" cy="0" r="1" gradientUnits="userSpaceOnUse" gradientTransform="translate(332.053 258.023) rotate(-163.841) scale(59.2707 69.4133)">
<stop/>
<stop offset="0.901042" stop-color="#AFAFF2"/>
</radialGradient>
<radialGradient id="paint22_radial_157_2964" cx="0" cy="0" r="1" gradientUnits="userSpaceOnUse" gradientTransform="translate(307.871 292.558) rotate(-148.56) scale(58.4744 65.6679)">
<stop/>
<stop offset="0.901042" stop-color="#AFAFF2"/>
</radialGradient>
<radialGradient id="paint23_radial_157_2964" cx="0" cy="0" r="1" gradientUnits="userSpaceOnUse" gradientTransform="translate(287.141 312.467) rotate(-149.623) scale(62.7784 83.0108)">
<stop/>
<stop offset="0.901042" stop-color="#AFAFF2"/>
</radialGradient>
<radialGradient id="paint24_radial_157_2964" cx="0" cy="0" r="1" gradientUnits="userSpaceOnUse" gradientTransform="translate(249.527 333.004) rotate(-137.517) scale(57.7239 61.7703)">
<stop/>
<stop offset="0.901042" stop-color="#AFAFF2"/>
</radialGradient>
<radialGradient id="paint25_radial_157_2964" cx="0" cy="0" r="1" gradientUnits="userSpaceOnUse" gradientTransform="translate(11.3652 239.861) rotate(-39.4697) scale(54.3444 35.3292)">
<stop/>
<stop offset="0.901042" stop-color="#AFAFF2"/>
</radialGradient>
</defs>
</svg>
